<?xml version="1.0" standalone="no"?>
<!DOCTYPE svg PUBLIC "-//W3C//DTD SVG 20010904//EN"
 "http://www.w3.org/TR/2001/REC-SVG-20010904/DTD/svg10.dtd">
<svg version="1.0" xmlns="http://www.w3.org/2000/svg"
 width="600.000000pt" height="600.000000pt" viewBox="0 0 600.000000 600.000000"
 preserveAspectRatio="xMidYMid meet">

<g transform="translate(0.000000,600.000000) scale(0.100000,-0.100000)"
fill="#000000" stroke="none">
<path d="M2075 5369 c-113 -27 -166 -123 -115 -207 11 -17 44 -48 75 -67 78
-50 95 -71 95 -119 0 -51 -18 -81 -104 -175 -82 -89 -126 -175 -126 -247 0
-96 66 -187 177 -243 23 -11 44 -21 47 -21 3 0 -2 17 -11 38 -9 20 -16 62 -16
92 -2 106 61 193 192 264 172 95 242 226 211 396 -24 132 -98 225 -213 268
-65 24 -160 34 -212 21z"/>
<path d="M1755 4196 c-44 -19 -83 -63 -96 -107 -27 -87 53 -189 147 -189 17 0
27 -8 34 -26 6 -14 10 -124 10 -245 l0 -220 -583 -288 c-616 -304 -629 -312
-643 -386 -12 -64 21 -131 76 -160 75 -39 17 -64 1478 640 749 360 1363 655
1366 655 2 0 424 -268 938 -597 513 -328 953 -605 977 -616 135 -60 272 113
178 226 -17 20 -1753 1109 -1982 1243 -39 22 -62 29 -105 29 -60 0 -60 -1
-817 -364 l-313 -149 0 124 c0 120 1 124 23 128 12 3 34 7 49 10 33 7 84 50
103 87 32 62 6 143 -62 189 l-37 25 -355 2 c-280 2 -362 0 -386 -11z"/>
<path d="M2500 3204 l-1025 -494 -2 -682 -2 -683 43 -26 c59 -36 99 -117 99
-198 l0 -58 72 0 c123 -1 233 -70 265 -167 19 -58 9 -154 -23 -215 l-26 -51
232 2 232 3 5 635 c5 621 5 636 27 687 35 87 69 137 131 194 98 91 195 128
332 129 218 0 388 -117 471 -325 l24 -60 5 -630 5 -630 345 -3 344 -2 -31 32
c-83 89 -69 243 32 344 67 67 143 98 245 98 66 1 83 -3 139 -32 64 -33 80 -32
81 4 0 7 20 34 44 61 91 101 224 133 337 81 l56 -26 23 51 c13 28 45 73 72
101 l48 50 0 657 0 657 -774 496 c-425 273 -779 496 -787 495 -8 0 -475 -223
-1039 -495z m1784 -574 c72 -27 139 -88 173 -158 28 -57 28 -58 31 -284 l3
-228 -331 0 -331 0 3 228 3 228 33 66 c56 113 146 167 284 168 54 0 94 -6 132
-20z"/>
<path d="M577 1450 c-99 -17 -163 -64 -209 -154 -29 -55 -37 -192 -14 -256 8
-24 14 -46 12 -47 -1 -2 -17 2 -35 8 -47 16 -115 6 -162 -25 -89 -59 -104
-191 -32 -277 56 -67 21 -64 840 -67 820 -3 793 -5 833 60 54 89 -8 227 -118
258 -50 14 -76 13 -119 -5 -19 -8 -39 -15 -43 -15 -4 0 -10 37 -13 83 -3 45
-10 99 -16 119 -17 53 -70 128 -118 164 -108 82 -281 61 -390 -46 l-40 -41 -6
38 c-16 96 -103 175 -221 200 -68 14 -80 14 -149 3z"/>
<path d="M5257 1376 c-113 -41 -211 -164 -238 -299 l-11 -52 -51 50 c-72 70
-154 92 -238 64 -93 -32 -141 -106 -142 -223 l-1 -73 -48 52 c-68 75 -149 115
-229 115 -146 0 -251 -100 -236 -225 6 -59 37 -98 99 -126 l53 -24 771 0 770
0 42 28 c47 31 97 110 107 169 11 62 -4 116 -42 159 -62 68 -156 86 -237 44
-16 -9 -30 -14 -32 -12 -2 1 4 23 12 47 65 185 -153 375 -349 306z"/>
</g>
</svg>
